<?xml version="1.0" standalone="no"?>
<!DOCTYPE svg PUBLIC "-//W3C//DTD SVG 1.1//EN" "http://www.w3.org/Graphics/SVG/1.1/DTD/svg11.dtd">
<!--Generator: Xara Designer (www.xara.com), SVG filter version: 5.0.0.2-->
<svg stroke-width="0.501" stroke-linejoin="bevel" fill-rule="evenodd" xmlns:xlink="http://www.w3.org/1999/xlink" xmlns="http://www.w3.org/2000/svg" version="1.1" overflow="visible" width="170.079pt" height="340.158pt" viewBox="0 0 170.079 340.158">
 <defs>
  <marker id="DefaultArrow2" markerUnits="strokeWidth" viewBox="0 0 1 1" markerWidth="1" markerHeight="1" overflow="visible" orient="auto">
   <!-- REF_ARROW_STRAIGHT (-2) -->
   <g transform="scale(0.0092592592)">
    <!-- 1/108 -->
    <path d="M -9 54 L -9 -54 L 117 0 z"/>
   </g>
  </marker>
  <marker id="DefaultArrow3" markerUnits="strokeWidth" viewBox="0 0 1 1" markerWidth="1" markerHeight="1" overflow="visible" orient="auto">
   <!-- REF_ARROW_ANGLED -->
   <g transform="scale(0.0092592592)">
    <path d="M -27 54 L -9 0 L -27 -54 L 135 0 z"/>
   </g>
  </marker>
  <marker id="DefaultArrow4" markerUnits="strokeWidth" viewBox="0 0 1 1" markerWidth="1" markerHeight="1" overflow="visible" orient="auto">
   <!-- REF_ARROW_ROUNDED -->
   <g transform="scale(0.0092592592)">
    <path d="M -9,0 L -9,-45 C -9,-51.708 2.808,-56.580 9,-54 L 117,-9 C 120.916,-7.369 126.000,-4.242 126,0 C 126,4.242 120.916,7.369 117,9 L 9,54 C 2.808,56.580 -9,51.708 -9,45 z"/>
   </g>
  </marker>
  <marker id="DefaultArrow5" markerUnits="strokeWidth" viewBox="0 0 1 1" markerWidth="1" markerHeight="1" overflow="visible" orient="auto">
   <!-- REF_ARROW_SPOT -->
   <g transform="scale(0.0092592592)">
    <path d="M -54, 0 C -54,29.807 -29.807,54 0,54 C 29.807,54 54,29.807 54,0 C 54,-29.807 29.807,-54 0,-54 C -29.807,-54 -54,-29.807 -54,0 z"/>
   </g>
  </marker>
  <marker id="DefaultArrow6" markerUnits="strokeWidth" viewBox="0 0 1 1" markerWidth="1" markerHeight="1" overflow="visible" orient="auto">
   <!-- REF_ARROW_DIAMOND -->
   <g transform="scale(0.0092592592)">
    <path d="M -63,0 L 0,63 L 63,0 L 0,-63 z"/>
   </g>
  </marker>
  <marker id="DefaultArrow7" markerUnits="strokeWidth" viewBox="0 0 1 1" markerWidth="1" markerHeight="1" overflow="visible" orient="auto">
   <!-- REF_ARROW_FEATHER -->
   <g transform="scale(0.0092592592)">
    <path d="M 18,-54 L 108,-54 L 63,0 L 108,54 L 18, 54 L -36,0 z"/>
   </g>
  </marker>
  <marker id="DefaultArrow8" markerUnits="strokeWidth" viewBox="0 0 1 1" markerWidth="1" markerHeight="1" overflow="visible" orient="auto">
   <!-- REF_ARROW_FEATHER2 -->
   <g transform="scale(0.0092592592)">
    <path d="M -36,0 L 18,-54 L 54,-54 L 18,-18 L 27,-18 L 63,-54 L 99,-54 L 63,-18 L 72,-18 L 108,-54 L 144,-54 L 90,0 L 144,54 L 108,54 L 72,18 L 63,18 L 99,54 L 63,54 L 27,18 L 18,18 L 54,54 L 18,54 z"/>
   </g>
  </marker>
  <marker id="DefaultArrow9" markerUnits="strokeWidth" viewBox="0 0 1 1" markerWidth="1" markerHeight="1" overflow="visible" orient="auto">
   <!-- REF_ARROW_HOLLOWDIAMOND -->
   <g transform="scale(0.0092592592)">
    <path d="M 0,45 L -45,0 L 0, -45 L 45, 0 z M 0, 63 L-63, 0 L 0, -63 L 63, 0 z"/>
   </g>
  </marker>
  <filter id="StainedFilter">
   <feBlend mode="multiply" in2="BackgroundImage" in="SourceGraphic" result="blend"/>
   <feComposite in="blend" in2="SourceAlpha" operator="in" result="comp"/>
  </filter>
  <filter id="BleachFilter">
   <feBlend mode="screen" in2="BackgroundImage" in="SourceGraphic" result="blend"/>
   <feComposite in="blend" in2="SourceAlpha" operator="in" result="comp"/>
  </filter>
  <filter id="InvertTransparencyBitmapFilter">
   <feComponentTransfer>
    <feFuncR type="gamma" amplitude="1.055" exponent=".416666666" offset="-0.055"/>
    <feFuncG type="gamma" amplitude="1.055" exponent=".416666666" offset="-0.055"/>
    <feFuncB type="gamma" amplitude="1.055" exponent=".416666666" offset="-0.055"/>
   </feComponentTransfer>
   <feComponentTransfer>
    <feFuncR type="linear" slope="-1" intercept="1"/>
    <feFuncG type="linear" slope="-1" intercept="1"/>
    <feFuncB type="linear" slope="-1" intercept="1"/>
    <feFuncA type="linear" slope="1" intercept="0"/>
   </feComponentTransfer>
   <feComponentTransfer>
    <feFuncR type="gamma" amplitude="1" exponent="2.4" offset="0"/>
    <feFuncG type="gamma" amplitude="1" exponent="2.4" offset="0"/>
    <feFuncB type="gamma" amplitude="1" exponent="2.4" offset="0"/>
   </feComponentTransfer>
  </filter>
 </defs>
 <g id="Document" fill="none" stroke="black" font-family="Times New Roman" font-size="16" transform="scale(1 -1)">
  <g id="Spread" transform="translate(0 -340.158)">
   <g id="Layer 1">
    <g id="ClipView" stroke="none">
     <path d="M 117.025,255.152 L 143.663,255.152 L 143.663,228.086 L 117.025,228.086 L 117.025,255.152"/>
     <clipPath id="ClipPath">
      <path d="M 117.025,228.086 L 117.025,255.152 L 143.663,255.152 L 143.663,228.086 L 117.025,228.086 Z"/>
     </clipPath>
     <g clip-path="url(#ClipPath)">
      <g id="Group" fill-rule="evenodd" stroke-linejoin="miter" stroke-width="1" stroke-miterlimit="79.8403193612775">
       <path d="M 123.181,228.685 L 121.368,228.685 L 121.368,234.04 L 123.181,234.04 L 123.181,228.685 Z" fill="#8c8c8c" marker-start="none" marker-end="none"/>
       <path d="M 130.382,228.685 L 128.567,228.685 L 128.567,234.04 L 130.382,234.04 L 130.382,228.685 Z" fill="#8c8c8c" marker-start="none" marker-end="none"/>
       <path d="M 137.581,228.685 L 135.766,228.685 L 135.766,234.04 L 137.581,234.04 L 137.581,228.685 Z" fill="#8c8c8c" marker-start="none" marker-end="none"/>
       <path d="M 123.173,228.735 L 121.36,228.735 L 121.36,243.698 L 123.173,243.698 L 123.173,228.735 Z" fill="#8c8c8c" marker-start="none" marker-end="none"/>
       <path d="M 130.373,228.735 L 128.558,228.735 L 128.558,243.698 L 130.373,243.698 L 130.373,228.735 Z" fill="#8c8c8c" marker-start="none" marker-end="none"/>
       <path d="M 137.572,228.735 L 135.757,228.735 L 135.757,243.698 L 137.572,243.698 L 137.572,228.735 Z" fill="#8c8c8c" marker-start="none" marker-end="none"/>
       <path d="M 124.787,236.396 L 123.174,235.676 L 121.36,235.676 L 119.747,236.396 L 119.747,245.165 L 124.787,245.165 Z" fill="#8c8c8c" marker-start="none" marker-end="none"/>
       <path d="M 131.987,236.396 L 130.373,235.676 L 128.56,235.676 L 126.947,236.396 L 126.947,245.165 L 131.987,245.165 Z" fill="#8c8c8c" marker-start="none" marker-end="none"/>
       <path d="M 139.186,236.396 L 137.571,235.676 L 135.759,235.676 L 134.146,236.396 L 134.146,245.165 L 139.186,245.165 Z" fill="#8c8c8c" marker-start="none" marker-end="none"/>
       <path d="M 142.786,238.506 L 116.147,238.506 L 116.147,251.805 L 142.786,251.805 L 142.786,238.506 Z" fill="#1a1a1a" marker-start="none" marker-end="none"/>
       <path d="M 142.786,245.864 L 116.147,245.864 L 116.147,249.211 L 142.786,249.211 L 142.786,245.864 Z" fill="#000000" marker-start="none" marker-end="none"/>
       <path d="M 142.786,247.772 L 116.147,247.772 L 116.147,251.909 L 142.786,251.909 L 142.786,247.772 Z" fill="#333333" marker-start="none" marker-end="none"/>
       <path d="M 135.526,248.159 L 124.323,248.159 L 124.323,251.506 L 135.526,251.506 L 135.526,248.159 Z" fill="#000000" marker-start="none" marker-end="none"/>
       <path d="M 135.376,248.279 L 130.579,248.279 L 130.579,253.556 L 135.376,253.556 L 135.376,248.279 Z" fill="#1a1a1a" marker-start="none" marker-end="none"/>
       <path d="M 135.376,253.558 L 130.579,253.558 L 130.579,255.751 L 135.376,255.751 L 135.376,253.558 Z" fill="#333333" marker-start="none" marker-end="none"/>
      </g>
     </g>
    </g>
    <g id="ClipView_1" stroke="none">
     <path d="M 118.001,84.803 L 144.639,84.803 L 144.639,111.869 L 118.001,111.869 L 118.001,84.803"/>
     <clipPath id="ClipPath_1">
      <path d="M 118.001,84.803 L 118.001,111.869 L 144.639,111.869 L 144.639,84.803 L 118.001,84.803 Z"/>
     </clipPath>
     <g clip-path="url(#ClipPath_1)">
      <g id="Group_1" fill-rule="evenodd" stroke-linejoin="miter" stroke-width="1" stroke-miterlimit="79.8403193612775">
       <path d="M 124.157,111.27 L 122.344,111.27 L 122.344,105.915 L 124.157,105.915 L 124.157,111.27 Z" fill="#8c8c8c" marker-start="none" marker-end="none"/>
       <path d="M 131.358,111.27 L 129.543,111.27 L 129.543,105.915 L 131.358,105.915 L 131.358,111.27 Z" fill="#8c8c8c" marker-start="none" marker-end="none"/>
       <path d="M 138.557,111.27 L 136.742,111.27 L 136.742,105.915 L 138.557,105.915 L 138.557,111.27 Z" fill="#8c8c8c" marker-start="none" marker-end="none"/>
       <path d="M 124.149,111.22 L 122.336,111.22 L 122.336,96.257 L 124.149,96.257 L 124.149,111.22 Z" fill="#8c8c8c" marker-start="none" marker-end="none"/>
       <path d="M 131.349,111.22 L 129.534,111.22 L 129.534,96.257 L 131.349,96.257 L 131.349,111.22 Z" fill="#8c8c8c" marker-start="none" marker-end="none"/>
       <path d="M 138.548,111.22 L 136.733,111.22 L 136.733,96.257 L 138.548,96.257 L 138.548,111.22 Z" fill="#8c8c8c" marker-start="none" marker-end="none"/>
       <path d="M 125.763,103.559 L 124.15,104.279 L 122.336,104.279 L 120.723,103.559 L 120.723,94.79 L 125.763,94.79 Z" fill="#8c8c8c" marker-start="none" marker-end="none"/>
       <path d="M 132.963,103.559 L 131.349,104.279 L 129.536,104.279 L 127.923,103.559 L 127.923,94.79 L 132.963,94.79 Z" fill="#8c8c8c" marker-start="none" marker-end="none"/>
       <path d="M 140.162,103.559 L 138.547,104.279 L 136.735,104.279 L 135.122,103.559 L 135.122,94.79 L 140.162,94.79 Z" fill="#8c8c8c" marker-start="none" marker-end="none"/>
       <path d="M 143.762,101.449 L 117.123,101.449 L 117.123,88.15 L 143.762,88.15 L 143.762,101.449 Z" fill="#1a1a1a" marker-start="none" marker-end="none"/>
       <path d="M 143.762,94.091 L 117.123,94.091 L 117.123,90.744 L 143.762,90.744 L 143.762,94.091 Z" fill="#000000" marker-start="none" marker-end="none"/>
       <path d="M 143.762,92.183 L 117.123,92.183 L 117.123,88.046 L 143.762,88.046 L 143.762,92.183 Z" fill="#333333" marker-start="none" marker-end="none"/>
       <path d="M 136.502,91.796 L 125.299,91.796 L 125.299,88.449 L 136.502,88.449 L 136.502,91.796 Z" fill="#000000" marker-start="none" marker-end="none"/>
       <path d="M 136.352,91.676 L 131.555,91.676 L 131.555,86.399 L 136.352,86.399 L 136.352,91.676 Z" fill="#1a1a1a" marker-start="none" marker-end="none"/>
       <path d="M 136.352,86.397 L 131.555,86.397 L 131.555,84.204 L 136.352,84.204 L 136.352,86.397 Z" fill="#333333" marker-start="none" marker-end="none"/>
      </g>
     </g>
    </g>
    <path d="M 10.288,238.367 L 10.288,101.368 L 164.287,101.368 L 164.287,238.367 L 10.288,238.367 Z" stroke="#000000" fill="#e6e6e6" stroke-width="0.5" stroke-linejoin="miter" stroke-linecap="round" marker-start="none" marker-end="none" stroke-miterlimit="79.8403193612775"/>
    <text xml:space="preserve" transform="translate(28.17 156.086) scale(1 -1)" font-size="36" stroke="none" fill="#000000" stroke-width="0.25" stroke-linejoin="round" stroke-linecap="round" font-family="Courier New" stroke-miterlimit="79.8403193612775"><tspan x="13.792" y="0">UBEC</tspan></text>
    <path d="M 37.921,330.784 L 37.921,238.535 L 40.17,238.535 L 40.17,330.784 L 37.921,330.784 Z" stroke="#ff0000" fill="#ff0000" stroke-width="0.5" stroke-linejoin="miter" stroke-linecap="round" marker-start="none" marker-end="none" stroke-miterlimit="79.8403193612775"/>
    <path d="M 44.47,330.835 L 44.47,238.586 L 46.719,238.586 L 46.719,330.835 L 44.47,330.835 Z" stroke="#000000" fill="#000000" stroke-width="0.5" stroke-linejoin="miter" stroke-linecap="round" marker-start="none" marker-end="none" stroke-miterlimit="79.8403193612775"/>
    <path d="M 82.57,101.26 L 82.57,9.011 L 84.819,9.011 L 84.819,101.26 L 82.57,101.26 Z" stroke="#ff0000" fill="#ff0000" stroke-width="0.5" stroke-linejoin="miter" stroke-linecap="round" marker-start="none" marker-end="none" stroke-miterlimit="79.8403193612775"/>
    <path d="M 89.119,101.311 L 89.119,9.062 L 91.368,9.062 L 91.368,101.311 L 89.119,101.311 Z" stroke="#000000" fill="#000000" stroke-width="0.5" stroke-linejoin="miter" stroke-linecap="round" marker-start="none" marker-end="none" stroke-miterlimit="79.8403193612775"/>
    <text xml:space="preserve" transform="translate(11.61 217.586) scale(1 -1)" font-size="18.934" stroke="none" fill="#000000" stroke-width="0.25" stroke-linejoin="round" stroke-linecap="round" font-family="Courier New" stroke-miterlimit="79.8403193612775"><tspan x="18.616" y="0">IN</tspan></text>
    <text xml:space="preserve" transform="translate(55.837 111.461) scale(1 -1)" font-size="18.934" stroke="none" fill="#000000" stroke-width="0.25" stroke-linejoin="round" stroke-linecap="round" font-family="Courier New" stroke-miterlimit="79.8403193612775"><tspan x="12.935" y="0">OUT</tspan></text>
    <text xml:space="preserve" transform="translate(100.087 106.586) scale(1 -1)" font-size="10" stroke="none" fill="#000000" stroke-width="0.25" stroke-linejoin="round" stroke-linecap="round" font-family="Courier New" stroke-miterlimit="79.8403193612775"><tspan x="14.976" y="0">6V/5V</tspan></text>
    <text xml:space="preserve" transform="translate(99.961 227.411) scale(1 -1)" font-size="10" stroke="none" fill="#000000" stroke-width="0.25" stroke-linejoin="round" stroke-linecap="round" font-family="Courier New" stroke-miterlimit="79.8403193612775"><tspan x="11.975" y="0">ON/OFF</tspan></text>
   </g>
  </g>
 </g>
</svg>
