<?xml version="1.0" standalone="no"?>
<!DOCTYPE svg PUBLIC "-//W3C//DTD SVG 1.1//EN" "http://www.w3.org/Graphics/SVG/1.1/DTD/svg11.dtd">
<!--Generator: Xara Designer (www.xara.com), SVG filter version: 5.0.0.2-->
<svg stroke-width="0.501" stroke-linejoin="bevel" fill-rule="evenodd" xmlns:xlink="http://www.w3.org/1999/xlink" xmlns="http://www.w3.org/2000/svg" version="1.1" overflow="visible" width="595.277pt" height="841.891pt" viewBox="0 0 595.277 841.891">
 <defs>
  <marker id="DefaultArrow2" markerUnits="strokeWidth" viewBox="0 0 1 1" markerWidth="1" markerHeight="1" overflow="visible" orient="auto">
   <!-- REF_ARROW_STRAIGHT (-2) -->
   <g transform="scale(0.0092592592)">
    <!-- 1/108 -->
    <path d="M -9 54 L -9 -54 L 117 0 z"/>
   </g>
  </marker>
  <marker id="DefaultArrow3" markerUnits="strokeWidth" viewBox="0 0 1 1" markerWidth="1" markerHeight="1" overflow="visible" orient="auto">
   <!-- REF_ARROW_ANGLED -->
   <g transform="scale(0.0092592592)">
    <path d="M -27 54 L -9 0 L -27 -54 L 135 0 z"/>
   </g>
  </marker>
  <marker id="DefaultArrow4" markerUnits="strokeWidth" viewBox="0 0 1 1" markerWidth="1" markerHeight="1" overflow="visible" orient="auto">
   <!-- REF_ARROW_ROUNDED -->
   <g transform="scale(0.0092592592)">
    <path d="M -9,0 L -9,-45 C -9,-51.708 2.808,-56.580 9,-54 L 117,-9 C 120.916,-7.369 126.000,-4.242 126,0 C 126,4.242 120.916,7.369 117,9 L 9,54 C 2.808,56.580 -9,51.708 -9,45 z"/>
   </g>
  </marker>
  <marker id="DefaultArrow5" markerUnits="strokeWidth" viewBox="0 0 1 1" markerWidth="1" markerHeight="1" overflow="visible" orient="auto">
   <!-- REF_ARROW_SPOT -->
   <g transform="scale(0.0092592592)">
    <path d="M -54, 0 C -54,29.807 -29.807,54 0,54 C 29.807,54 54,29.807 54,0 C 54,-29.807 29.807,-54 0,-54 C -29.807,-54 -54,-29.807 -54,0 z"/>
   </g>
  </marker>
  <marker id="DefaultArrow6" markerUnits="strokeWidth" viewBox="0 0 1 1" markerWidth="1" markerHeight="1" overflow="visible" orient="auto">
   <!-- REF_ARROW_DIAMOND -->
   <g transform="scale(0.0092592592)">
    <path d="M -63,0 L 0,63 L 63,0 L 0,-63 z"/>
   </g>
  </marker>
  <marker id="DefaultArrow7" markerUnits="strokeWidth" viewBox="0 0 1 1" markerWidth="1" markerHeight="1" overflow="visible" orient="auto">
   <!-- REF_ARROW_FEATHER -->
   <g transform="scale(0.0092592592)">
    <path d="M 18,-54 L 108,-54 L 63,0 L 108,54 L 18, 54 L -36,0 z"/>
   </g>
  </marker>
  <marker id="DefaultArrow8" markerUnits="strokeWidth" viewBox="0 0 1 1" markerWidth="1" markerHeight="1" overflow="visible" orient="auto">
   <!-- REF_ARROW_FEATHER2 -->
   <g transform="scale(0.0092592592)">
    <path d="M -36,0 L 18,-54 L 54,-54 L 18,-18 L 27,-18 L 63,-54 L 99,-54 L 63,-18 L 72,-18 L 108,-54 L 144,-54 L 90,0 L 144,54 L 108,54 L 72,18 L 63,18 L 99,54 L 63,54 L 27,18 L 18,18 L 54,54 L 18,54 z"/>
   </g>
  </marker>
  <marker id="DefaultArrow9" markerUnits="strokeWidth" viewBox="0 0 1 1" markerWidth="1" markerHeight="1" overflow="visible" orient="auto">
   <!-- REF_ARROW_HOLLOWDIAMOND -->
   <g transform="scale(0.0092592592)">
    <path d="M 0,45 L -45,0 L 0, -45 L 45, 0 z M 0, 63 L-63, 0 L 0, -63 L 63, 0 z"/>
   </g>
  </marker>
  <filter id="StainedFilter">
   <feBlend mode="multiply" in2="BackgroundImage" in="SourceGraphic" result="blend"/>
   <feComposite in="blend" in2="SourceAlpha" operator="in" result="comp"/>
  </filter>
  <filter id="BleachFilter">
   <feBlend mode="screen" in2="BackgroundImage" in="SourceGraphic" result="blend"/>
   <feComposite in="blend" in2="SourceAlpha" operator="in" result="comp"/>
  </filter>
  <filter id="InvertTransparencyBitmapFilter">
   <feComponentTransfer>
    <feFuncR type="gamma" amplitude="1.055" exponent=".416666666" offset="-0.055"/>
    <feFuncG type="gamma" amplitude="1.055" exponent=".416666666" offset="-0.055"/>
    <feFuncB type="gamma" amplitude="1.055" exponent=".416666666" offset="-0.055"/>
   </feComponentTransfer>
   <feComponentTransfer>
    <feFuncR type="linear" slope="-1" intercept="1"/>
    <feFuncG type="linear" slope="-1" intercept="1"/>
    <feFuncB type="linear" slope="-1" intercept="1"/>
    <feFuncA type="linear" slope="1" intercept="0"/>
   </feComponentTransfer>
   <feComponentTransfer>
    <feFuncR type="gamma" amplitude="1" exponent="2.4" offset="0"/>
    <feFuncG type="gamma" amplitude="1" exponent="2.4" offset="0"/>
    <feFuncB type="gamma" amplitude="1" exponent="2.4" offset="0"/>
   </feComponentTransfer>
  </filter>
 </defs>
 <g id="Document" fill="none" stroke="black" font-family="Times New Roman" font-size="16" transform="scale(1 -1)">
  <g id="Spread" transform="translate(0 -841.891)">
   <g id="Layer 1">
    <g id="Group" fill-rule="evenodd" stroke-linejoin="round" stroke-linecap="round" stroke="#f6ca34" stroke-width="1.44" stroke-miterlimit="79.8403193612775">
     <path d="M 309.434,648.611 C 309.43,644.262 305.903,640.735 301.558,640.735 C 297.209,640.735 293.682,644.262 293.678,648.611 C 293.678,652.961 297.205,656.488 301.558,656.488 C 305.908,656.488 309.434,652.961 309.434,648.611 Z" fill="none" marker-start="none" marker-end="none"/>
     <path d="M 340.939,648.611 C 340.935,644.262 337.408,640.74 333.063,640.74 C 328.713,640.74 325.187,644.262 325.187,648.611 C 325.182,652.961 328.709,656.492 333.063,656.492 C 337.412,656.492 340.939,652.961 340.939,648.607 Z" fill="none" marker-start="none" marker-end="none"/>
    </g>
    <g id="Group_1" fill-rule="evenodd" stroke-linejoin="round" stroke-linecap="round" stroke="#f6ca34" stroke-width="1.44" stroke-miterlimit="79.8403193612775">
     <g id="Group_2">
      <path d="M 309.434,622.361 C 309.43,618.012 305.903,614.485 301.558,614.485 C 297.209,614.485 293.682,618.012 293.678,622.361 C 293.678,626.711 297.205,630.238 301.558,630.238 C 305.908,630.238 309.434,626.711 309.434,622.361 Z" fill="none" marker-start="none" marker-end="none"/>
      <path d="M 340.939,622.361 C 340.935,618.012 337.408,614.49 333.063,614.49 C 328.713,614.49 325.187,618.012 325.187,622.361 C 325.182,626.711 328.709,630.242 333.063,630.242 C 337.412,630.242 340.939,626.711 340.939,622.357 Z" fill="none" marker-start="none" marker-end="none"/>
     </g>
    </g>
    <path d="M 363.016,589.428 L 271.631,589.428 L 271.631,678.537 L 363.016,678.537 L 363.016,589.428 Z" stroke="#ffffff" stroke-width="0.31" fill-rule="evenodd" stroke-linejoin="miter" marker-start="none" marker-end="none" stroke-miterlimit="79.8403193612775"/>
    <path d="M 301.558,674.603 L 301.558,663.576" stroke="#ffffff" fill="#eaeaea" stroke-width="0.374" stroke-linejoin="round" stroke-linecap="round" stroke-miterlimit="79.8403193612775" fill-opacity="0.768627"/>
    <path d="M 307.072,669.089 L 296.045,669.089" stroke="#ffffff" fill="#eaeaea" stroke-width="0.374" stroke-linejoin="round" stroke-linecap="round" stroke-miterlimit="79.8403193612775" fill-opacity="0.768627"/>
    <path d="M 338.602,669.089 L 327.576,669.089" stroke="#ffffff" fill="#eaeaea" stroke-width="0.374" stroke-linejoin="round" stroke-linecap="round" stroke-miterlimit="79.8403193612775" fill-opacity="0.768627"/>
    <path d="M 301.451,606.588 L 301.451,595.561" stroke="#ffffff" fill="#eaeaea" stroke-width="0.374" stroke-linejoin="round" stroke-linecap="round" stroke-miterlimit="79.8403193612775" fill-opacity="0.768627"/>
    <path d="M 306.965,601.074 L 295.938,601.074" stroke="#ffffff" fill="#eaeaea" stroke-width="0.374" stroke-linejoin="round" stroke-linecap="round" stroke-miterlimit="79.8403193612775" fill-opacity="0.768627"/>
    <path d="M 338.495,601.074 L 327.469,601.074" stroke="#ffffff" fill="#eaeaea" stroke-width="0.374" stroke-linejoin="round" stroke-linecap="round" stroke-miterlimit="79.8403193612775" fill-opacity="0.768627"/>
   </g>
  </g>
 </g>
</svg>
